<?xml version="1.0" encoding="UTF-8"?>
<svg id="Layer_2" data-name="Layer 2" xmlns="http://www.w3.org/2000/svg" viewBox="0 0 135.37 142.48">
  <defs>
    <style>
      .cls-1 {
        fill: none;
        stroke: #0fa9e1;
        stroke-linecap: round;
        stroke-linejoin: round;
        stroke-width: 3px;
      }
    </style>
  </defs>
  <g id="home-1">
    <g>
      <g>
        <line class="cls-1" x1="87.32" y1="127.95" x2="69.48" y2="127.95"/>
        <path class="cls-1" d="M5.33,127.95h-1.74c-1.15,0-2.09-.94-2.09-2.09v-52.92c0-5.83,4.73-10.56,10.56-10.56H93.84c11.97,0,23.03,5.33,30.49,14.09,2.95,3.47,5.34,7.48,7,11.91,.84,2.24,1.47,4.55,1.89,6.89,.42,2.35,.64,4.72,.64,7.12v21.14c0,2.44-1.98,4.41-4.41,4.41h-5.57"/>
        <path class="cls-1" d="M124.33,76.47H9.34v26.03H108.28c1.79,0,3.47,.81,4.59,2.2l3.78,4.71c.61,.75,1.49,1.2,2.43,1.21l14.79,.16"/>
        <circle class="cls-1" cx="106.29" cy="128.27" r="12.71"/>
        <circle class="cls-1" cx="51.88" cy="128.27" r="12.71"/>
        <circle class="cls-1" cx="22.38" cy="128.27" r="12.71"/>
        <line class="cls-1" x1="26.78" y1="76.47" x2="26.78" y2="101.94"/>
        <line class="cls-1" x1="51.04" y1="76.47" x2="51.04" y2="101.94"/>
        <line class="cls-1" x1="75.29" y1="76.47" x2="75.29" y2="101.94"/>
        <line class="cls-1" x1="99.55" y1="76.47" x2="99.55" y2="101.94"/>
      </g>
      <path class="cls-1" d="M90.73,56.35c0-1.54-1.25-2.8-2.8-2.8H22.03c-1.54,0-2.8,1.25-2.8,2.8"/>
      <path class="cls-1" d="M81.81,48.69c2.79-4.67,4.39-10.13,4.39-15.97,0-17.24-13.98-31.22-31.22-31.22s-31.22,13.98-31.22,31.22c0,5.84,1.6,11.3,4.39,15.97"/>
      <g>
        <path class="cls-1" d="M69.81,13.57c-1.01,1.48-2.73,3.57-5.43,5.17-3.02,1.79-6.77,1.99-10.79,2.75-3.65,.69-7,1.66-9.73,3.99-.83,.71-1.5,1.53-2.02,2.29-2.63,3.8-1.05,8.87,1.21,12.17,3.69,5.4,10.11,5.62,11.17,5.64,6.81,.11,11.14-4.84,12.15-5.98,4.77-5.45,4.72-12.34,4.69-16.99-.03-3.79-.66-6.91-1.24-9.05Z"/>
        <path class="cls-1" d="M54.22,36.75c-3.68,2.31-7.82,3.75-13.08,5.58-2.23,.78-3.87,1.26-5.22,1.69"/>
      </g>
    </g>
  </g>
</svg>