<?xml version="1.0" encoding="UTF-8"?>
<svg id="Layer_2" data-name="Layer 2" xmlns="http://www.w3.org/2000/svg" viewBox="0 0 150.4 150.4">
  <defs>
    <style>
      .cls-1 {
        fill: none;
        stroke: #0fa9e1;
        stroke-linecap: round;
        stroke-linejoin: round;
        stroke-width: 3px;
      }
    </style>
  </defs>
  <g id="home-1">
    <g>
      <path class="cls-1" d="M1.5,64.9v20.6l17.4,2.58c1.46,6.41,3.99,12.42,7.39,17.82l-10.49,14.13,14.57,14.57,14.13-10.49c5.4,3.4,11.41,5.92,17.82,7.38l2.58,17.4h20.6l2.58-17.4c6.41-1.46,12.42-3.99,17.82-7.38l14.13,10.49,14.57-14.57-10.48-14.13c3.4-5.4,5.92-11.41,7.38-17.82l17.4-2.58v-20.6l-17.4-2.58c-1.46-6.41-3.99-12.42-7.38-17.82l10.48-14.13-14.57-14.57-14.13,10.48c-5.4-3.4-11.41-5.92-17.82-7.38l-2.58-17.4h-20.6l-2.58,17.4c-6.41,1.46-12.42,3.99-17.82,7.38l-14.13-10.48-14.57,14.57,10.49,14.13c-3.4,5.4-5.92,11.41-7.39,17.82l-17.4,2.58Z"/>
      <g>
        <path class="cls-1" d="M80.95,69.21s.03,.02,.05,.02c.02,0,.03,.02,.05,.03,.02,0,.03,.01,.05,.02,0,0,.02,0,.03,.01t0,0s.03,.01,.05,.02c0,0,.02,0,.02,.01,.01,0,.03,.01,.04,.02,0,0,0,0,.01,0,.02,0,.03,0,.03,.01,0,0,.01,0,.02,.01h.01c1.05,.5,2.09,.98,3.14,1.47,5.67,2.65,12.02,5.33,17.76,2.88,.4-.17,1.03-.36,1.74-.54,2.56-.65,5.23-.26,7.61,.87,1.82,.86,3.85,1.25,5.91,1.13,.13,0,.22,0,.24,.01"/>
        <path class="cls-1" d="M88.5,34.82c-2.84,1.16-6.4,3.28-9.05,4.19-2.33,.81-5.04,2.07-5.51,4.79-.26,1.53,.31,3.14,.03,4.67-.7,3.79-5.74,4.43-6.99,8.02-.71,2.03,.1,4.42,1.46,5.95,1.36,1.53,3.18,2.4,4.95,3.23,2.53,1.19,4.58,2.15,5.96,2.79,.03,.01,.05,.03,.08,.03,.06,.03,.11,.06,.17,.08,.02,.01,.05,.02,.07,.03,.02,0,.04,.02,.06,.03,.05,.03,.09,.05,.14,.06,0,0,0,0,0,0,.02,0,.04,.02,.06,.03,.06,.03,.11,.05,.17,.08,.02,.01,.04,.02,.06,.03,.03,.01,.06,.03,.08,.04,.01,0,.02,.01,.03,.02,.05,.02,.1,.04,.14,.06,.03,.02,.06,.03,.08,.04,.03,.01,.06,.03,.08,.03,.02,0,.03,.02,.05,.03,.03,.01,.06,.03,.09,.04,.02,0,.03,.02,.05,.03,.03,.01,.05,.02,.08,.03,.01,0,.03,.01,.04,.02,0,0,0,0,.01,0,0,0,.02,0,.03,.01,0,0,.02,0,.02,0,0,0,.01,0,.02,0,.03,.02,.07,.03,.1,.05,.02,0,.03,.01,.05,.02,0,0,.02,0,.03,.01t0,0s.05,.02,.07,.03"/>
        <path class="cls-1" d="M35.53,68.32c3.85,.1,6.85,2.15,10.75,3.99,2.11,.99,4.22,1.99,6.33,2.98,3.62,1.71,7.66,3.9,8.55,7.81,1.32,5.78-5.14,10.75-5.16,16.68-.01,1.83,.6,3.59,.98,5.38,.38,1.79,.48,3.76-.44,5.34-.26,.44-.52,.62-.83,.68"/>
        <path class="cls-1" d="M86.73,94.01c-.45,.66-1.22,1.01-1.83,1.52-1.76,1.5-1.82,4.41-.48,6.3,1.34,1.89,3.73,2.81,6.04,2.86,2.31,.05,4.57-.67,6.72-1.5,1.55-.6,3.15-1.33,4.09-2.69,1.22-1.76,1.03-4.09,.8-6.21-.53-4.87-2.91-10.78-8.75-11.12-2.15-.13-4.91,1.36-6.02,3.19-1.51,2.49,.91,5.47-.58,7.66Z"/>
        <circle class="cls-1" cx="75.2" cy="75.2" r="42.5" transform="translate(-23.05 34.5) rotate(-22.5)"/>
      </g>
    </g>
  </g>
</svg>