<?xml version="1.0" encoding="UTF-8"?>
<svg id="Layer_2" data-name="Layer 2" xmlns="http://www.w3.org/2000/svg" viewBox="0 0 178.42 187.8">
  <defs>
    <style>
      .cls-1 {
        fill: none;
        stroke: #85bfba;
        stroke-linecap: round;
        stroke-linejoin: round;
        stroke-width: 2px;
      }
    </style>
  </defs>
  <g id="home-1">
    <g>
      <g>
        <circle class="cls-1" cx="89.21" cy="58.27" r="57.27"/>
        <path class="cls-1" d="M66.32,5.76l5.58,10.23c.13,.27,.2,.57,.2,.87v4.96c0,1.87,1.52,3.39,3.39,3.39h2.27c1.57,0,2.93,1.08,3.29,2.6l.68,2.88c.28,1.19-.1,2.45-1,3.27l-8.15,7.49c-.32,.29-.69,.52-1.09,.67l-11.91,4.5c-1.32,.5-2.19,1.76-2.19,3.17v6.52c0,1.19,.63,2.3,1.66,2.91l7.27,4.32c.66,.39,1.17,1,1.44,1.71l1.21,3.19c.5,1.32,1.76,2.19,3.17,2.19h4.92c1.87,0,3.39,1.52,3.39,3.39v1.19c0,1.64,1.18,3.05,2.8,3.33h0c1.68,.29,2.88,1.8,2.8,3.5l-.2,4.12c-.06,1.28-.85,2.42-2.02,2.93l-2.25,.99c-.72,.32-1.31,.88-1.67,1.58l-3.87,7.71c-.57,1.14-1.75,1.87-3.03,1.87h-7.56c-1.66,0-3.07-1.2-3.34-2.83l-1.84-11.15c-.14-.84-.59-1.6-1.27-2.13l-11.42-8.84c-.83-.64-1.31-1.63-1.31-2.68v-14.87c0-.34-.05-.67-.15-.99l-3.38-11.05c-.36-1.17-.06-2.44,.79-3.33l1.62-1.71c.65-.68,.73-1.73,.18-2.5l-6.27-8.56"/>
        <path class="cls-1" d="M124.03,12.8l-18.4,10.93c-.15,.13-.31,.24-.48,.33l-6.01,3.27c-.21,.11-.4,.25-.57,.42l-5.43,5.25c-.51,.5-.8,1.18-.8,1.89v7.87c0,.83,.39,1.61,1.05,2.1l4.93,3.7c1.16,.87,1.39,2.51,.53,3.67l-4.53,6.11c-1.49,2.01-2.3,4.45-2.3,6.95h0c0,3.82,1.87,7.39,5,9.58l5.52,3.84c.21,.15,.4,.33,.56,.53l5.5,6.97c.48,.6,.66,1.38,.52,2.13l-1.3,6.65c-.32,1.64,.96,3.17,2.63,3.13l6.68-.13c.7-.01,1.36-.3,1.84-.81l9.17-9.54c.3-.31,.52-.69,.64-1.11l2.17-7.69c1.39-4.94,.34-10.24-2.84-14.27h0c-.51-.65-.69-1.5-.48-2.3l2.01-7.57c.53-2,3.05-2.63,4.46-1.12h0c.69,.74,1.75,1.02,2.72,.71l9.12-3.84"/>
      </g>
      <g>
        <g>
          <g>
            <path class="cls-1" d="M151.16,115.73l8.71-35.56c.04-.17,.09-.33,.13-.5,2.62-8.99,15.66-7.97,17.25,1.26,.25,1.46,.24,2.98-.07,4.51l-8.19,49.67c-.7,4.22-2.83,8.06-6.03,10.89l-18.24,16.06c-5.61,4.94-8.01,12.59-6.22,19.85h0"/>
            <path class="cls-1" d="M96.4,186.8l-.09-.78-2.08-26.8c-.03-.42-.04-.84-.04-1.26,0-6.01,2.75-11.72,7.5-15.49,4.01-3.18,9.09-4.67,14.18-4.19l1.7,.17c1.88,.18,3.74-.48,5.09-1.81l13.41-13.16c4.03-3.96,9.45-6.15,15.05-6.15,.55,0,1.11,.03,1.66,.07,2.85,2.9,2.81,7.56-.1,10.41l-21.84,21.44"/>
          </g>
          <line class="cls-1" x1="139.21" y1="186.8" x2="138.48" y2="181.92"/>
        </g>
        <g>
          <g>
            <path class="cls-1" d="M27.26,115.73l-8.71-35.56c-.04-.17-.09-.33-.13-.5-2.62-8.99-15.66-7.97-17.25,1.26-.25,1.46-.24,2.98,.07,4.51l8.19,49.67c.7,4.22,2.83,8.06,6.03,10.89l18.24,16.06c5.61,4.94,8.01,12.59,6.22,19.85h0"/>
            <path class="cls-1" d="M47.58,149.24l-21.85-21.44c-2.9-2.84-2.94-7.51-.1-10.41,.55-.04,1.11-.07,1.66-.07,5.61,0,11.02,2.19,15.05,6.15l13.42,13.16c1.34,1.33,3.21,1.98,5.09,1.81l1.69-.17c5.09-.49,10.17,1.01,14.18,4.19,4.76,3.77,7.51,9.49,7.51,15.52,0,.41-.02,.82-.04,1.24l-2.08,26.8-.09,.78"/>
          </g>
          <line class="cls-1" x1="39.94" y1="181.92" x2="39.21" y2="186.8"/>
        </g>
      </g>
    </g>
  </g>
</svg>