<?xml version="1.0" encoding="UTF-8"?>
<svg id="Layer_2" data-name="Layer 2" xmlns="http://www.w3.org/2000/svg" viewBox="0 0 186.6 185.57">
  <defs>
    <style>
      .cls-1 {
        fill: none;
        stroke: #85bfba;
        stroke-linecap: round;
        stroke-linejoin: round;
        stroke-width: 2px;
      }
    </style>
  </defs>
  <g id="home-1">
    <g>
      <path class="cls-1" d="M163.24,133.03l-17.08-5.9c-7.29-2.52-15.27-2.17-22.31,.97l-7.44,3.32c-2.37,1.06-4.94,1.6-7.53,1.6h-36.92c-9.39,0-17,7.61-17,17h0c0,2.94,2.39,5.33,5.33,5.33h41.03"/>
      <path class="cls-1" d="M55.16,147.44l-28.28-13.87c-8.5-4.16-18.57-2.35-25.1,4.14-1.28,1.27-.94,3.43,.65,4.27l54.49,28.76c2.29,1.28,29.44,10.67,38.38,13.23,2.29,.66,4.71,.82,7.03,.28,.71-.16,1.41-.37,2.1-.62l35.71-12.78c3.05-1.23,6.5-1.02,9.38,.58l13.72,7.62"/>
      <path class="cls-1" d="M185.6,181.73h-17.31c-2.61,0-4.72-2.11-4.72-4.72v-43.13c0-2.61,2.11-4.72,4.72-4.72h17.31"/>
      <g>
        <path class="cls-1" d="M78.34,30.11c10.05,15.01,7.37,30.14-2.19,35.81-4.78,2.83-10.81,2.54-16.68-.23-9.83-4.63-15.9-14.75-15.77-25.61,.04-2.91,.11-6.02,.24-8.79,.73-15.24-6.23-30.28-6.23-30.28,0,0,31.5,15.48,40.63,29.11Z"/>
        <path class="cls-1" d="M75.5,105.23c.4-9.61,.7-20.9,.45-24.07-.65-8.21-2.5-16.31-5.51-24.03"/>
        <path class="cls-1" d="M92.78,68.34c-9.12,4-12.36,11.83-9.59,17.29,1.38,2.73,4.27,4.38,7.82,4.83,5.94,.76,11.76-2.14,14.92-7.23,.84-1.36,1.73-2.83,2.49-4.16,4.18-7.3,11.87-12.23,11.87-12.23,0,0-19.23-2.14-27.51,1.49Z"/>
        <path class="cls-1" d="M84.31,87.27c-1.39,1.43-2.7,2.94-3.91,4.53-1.73,2.29-3.25,4.73-4.53,7.31"/>
      </g>
      <path class="cls-1" d="M127.37,119.82c-9.8-8.42-26.47-13.96-45.41-13.96-24.55,0-45.32,9.32-52.2,22.15"/>
    </g>
  </g>
</svg>