<?xml version="1.0" encoding="utf-8"?>
<!-- Generator: Adobe Illustrator 27.8.1, SVG Export Plug-In . SVG Version: 6.00 Build 0)  -->
<svg version="1.1" id="Layer_2_00000130623078685347224770000008228341915660991883_"
	 xmlns="http://www.w3.org/2000/svg" xmlns:xlink="http://www.w3.org/1999/xlink" x="0px" y="0px" viewBox="0 0 500.9 221.4"
	 style="enable-background:new 0 0 500.9 221.4;" xml:space="preserve">
<style type="text/css">
	.st0{fill:#CCCCCC;}
	.st1{fill:#E6E6E6;}
	.st2{fill:#FFFFFF;}
	.st3{fill:#FDFFFF;}
</style>
<path class="st0" d="M162.1,70.6c-9.7,10.8-38.9,43.2-38.9,43.2c-17.3,19.2-38,30-64.2,20.4c-15.7-5.8-31.7-15-45.7-27.3
	c-9.8-8.5-13-21.9-10-33.2C-3.8,91,0.4,110.9,15.5,123c10.8,8.7,32.5,26.2,43.4,34.9c19.3,15.6,49.1,12.6,66.4-6.6
	c9.7-10.8,29.2-32.4,38.9-43.2c13.5-15.1,15.5-35.5,6.4-51.2C168.8,61.8,165.9,66.4,162.1,70.6L162.1,70.6z"/>
<path class="st1" d="M78,14.1c10.8,8.7,43.4,35,43.4,35c19.3,15.6,29.6,34.8,18.1,60.2c-6.9,15.2-17.4,31-30.9,45
	c-9.5,9.8-23.7,13.5-35.4,11.2c17.8,5.9,38.9,0.9,52.5-14.2c9.7-10.8,29.2-32.4,38.9-43.2c17.3-19.2,15.7-47.5-3.6-63
	c-10.9-8.7-32.5-26.2-43.4-35C102.4-2.1,81-2.9,64.1,6.5C69,8.2,73.8,10.6,78,14.1L78,14.1z"/>
<path class="st2" d="M14.1,97.3C23.9,86.5,53,54.1,53,54.1c17.3-19.2,38-30,64.2-20.3c15.7,5.8,31.7,15,45.7,27.3
	c9.8,8.6,13,21.9,10,33.2C180,77,175.8,57.1,160.7,45c-10.9-8.7-32.5-26.2-43.4-35C98-5.6,68.2-2.6,50.9,16.6
	C41.2,27.4,21.7,49,12,59.8C-1.6,74.9-3.5,95.3,5.5,111C7.5,106.2,10.4,101.5,14.1,97.3L14.1,97.3z"/>
<g>
	<path class="st3" d="M203.4,149.3V46.1h20.8v103.2L203.4,149.3L203.4,149.3z"/>
	<path class="st3" d="M244.1,46.1h38.1c8.6,0,15.1,0.7,19.6,2c6.1,1.8,11.2,5,15.6,9.5c4.3,4.5,7.6,10.1,9.9,16.7
		c2.2,6.6,3.4,14.7,3.4,24.4c0,8.5-1.1,15.8-3.2,22c-2.6,7.5-6.3,13.6-11,18.2c-3.6,3.5-8.5,6.3-14.6,8.2
		c-4.6,1.5-10.8,2.2-18.5,2.2h-39.2L244.1,46.1L244.1,46.1z M264.9,63.5v68.4h15.6c5.8,0,10-0.3,12.6-1c3.4-0.9,6.2-2.3,8.4-4.3
		c2.2-2,4-5.3,5.5-10s2.1-10.9,2.1-18.9s-0.7-14.1-2.1-18.4s-3.4-7.6-5.9-10s-5.8-4-9.6-4.9c-2.9-0.7-8.6-1-17.1-1L264.9,63.5
		L264.9,63.5z"/>
	<path class="st3" d="M348.5,149.3V46.1h20.3L411,115V46.1h19.4v103.2h-20.9L367.9,82v67.3H348.5L348.5,149.3z"/>
	<path class="st3" d="M451.8,149.3V46.1h20.8v103.2L451.8,149.3L451.8,149.3z"/>
</g>
<g>
	<path class="st2" d="M66.2,221.2v-16.5h2.2v16.5H66.2z"/>
	<path class="st2" d="M72,221.2v-11.9h1.8v1.7c0.9-1.3,2.1-2,3.8-2c0.7,0,1.4,0.1,2,0.4c0.6,0.3,1.1,0.6,1.3,1
		c0.3,0.4,0.5,0.9,0.6,1.5c0.1,0.4,0.1,1,0.1,2v7.3h-2V214c0-0.8-0.1-1.4-0.2-1.9c-0.2-0.4-0.4-0.7-0.8-1c-0.4-0.2-0.9-0.4-1.4-0.4
		c-0.9,0-1.6,0.3-2.2,0.8c-0.6,0.6-0.9,1.6-0.9,3.1v6.5L72,221.2L72,221.2z"/>
	<path class="st2" d="M92.5,221.2v-1.5c-0.8,1.2-1.9,1.8-3.3,1.8c-0.9,0-1.8-0.3-2.6-0.8c-0.8-0.5-1.4-1.3-1.8-2.2s-0.7-2-0.7-3.2
		s0.2-2.3,0.6-3.2s1-1.7,1.8-2.2s1.7-0.8,2.7-0.8c0.7,0,1.4,0.1,1.9,0.5c0.6,0.3,1,0.7,1.4,1.2v-5.9h2v16.5L92.5,221.2L92.5,221.2z
		 M86.1,215.2c0,1.5,0.3,2.7,1,3.4c0.6,0.8,1.4,1.1,2.3,1.1s1.6-0.4,2.2-1.1s0.9-1.8,0.9-3.3c0-1.6-0.3-2.8-0.9-3.6
		s-1.4-1.1-2.3-1.1s-1.7,0.4-2.2,1.1C86.4,212.5,86.1,213.6,86.1,215.2L86.1,215.2z"/>
	<path class="st2" d="M105.4,221.2v-1.8c-0.9,1.4-2.2,2-3.8,2c-0.7,0-1.4-0.1-2-0.4c-0.6-0.3-1.1-0.6-1.4-1s-0.5-0.9-0.6-1.5
		c-0.1-0.4-0.1-1-0.1-1.9v-7.4h2v6.6c0,1.1,0,1.8,0.1,2.1c0.1,0.5,0.4,0.9,0.8,1.2s0.9,0.5,1.5,0.5s1.2-0.2,1.7-0.5s0.9-0.7,1.1-1.3
		c0.2-0.5,0.3-1.3,0.3-2.3v-6.4h2V221h-1.6V221.2z"/>
	<path class="st2" d="M109.6,217.6l2-0.3c0.1,0.8,0.4,1.4,0.9,1.8c0.5,0.4,1.2,0.6,2.2,0.6s1.6-0.2,2.1-0.6s0.7-0.8,0.7-1.3
		s-0.2-0.8-0.6-1.1c-0.3-0.2-1-0.4-2.1-0.7c-1.5-0.4-2.5-0.7-3.1-1s-1-0.6-1.3-1.1s-0.4-1-0.4-1.6c0-0.5,0.1-1,0.4-1.5
		c0.2-0.4,0.6-0.8,1-1.1c0.3-0.2,0.7-0.4,1.3-0.6c0.5-0.2,1.1-0.2,1.8-0.2c0.9,0,1.8,0.1,2.5,0.4c0.7,0.3,1.2,0.6,1.6,1.1
		c0.3,0.5,0.6,1.1,0.7,1.9l-2,0.3c-0.1-0.6-0.3-1.1-0.8-1.4c-0.4-0.3-1-0.5-1.8-0.5c-0.9,0-1.6,0.1-2,0.5c-0.4,0.3-0.6,0.7-0.6,1.1
		c0,0.3,0.1,0.5,0.2,0.7c0.2,0.2,0.4,0.4,0.8,0.5c0.2,0.1,0.8,0.2,1.8,0.5c1.4,0.4,2.4,0.7,3,0.9s1,0.6,1.3,1.1s0.5,1,0.5,1.7
		s-0.2,1.3-0.6,1.9c-0.4,0.6-1,1.1-1.7,1.4c-0.7,0.3-1.6,0.5-2.5,0.5c-1.6,0-2.7-0.3-3.5-1C110.3,219.8,109.8,218.8,109.6,217.6
		L109.6,217.6z"/>
	<path class="st2" d="M126.3,219.4l0.3,1.8c-0.6,0.1-1.1,0.2-1.5,0.2c-0.7,0-1.3-0.1-1.7-0.4c-0.4-0.2-0.7-0.5-0.8-0.9
		c-0.2-0.4-0.2-1.2-0.2-2.4v-6.9h-1.5v-1.6h1.5v-2.9l2-1.2v4.2h2v1.6h-2v7c0,0.6,0,0.9,0.1,1.1c0.1,0.2,0.2,0.3,0.3,0.4
		c0.2,0.1,0.4,0.1,0.7,0.1C125.6,219.4,125.9,219.4,126.3,219.4L126.3,219.4z"/>
	<path class="st2" d="M128.2,221.2v-11.9h1.8v1.8c0.5-0.9,0.9-1.4,1.3-1.7c0.4-0.3,0.8-0.4,1.3-0.4c0.7,0,1.4,0.2,2.1,0.6l-0.7,1.9
		c-0.5-0.3-1-0.4-1.5-0.4c-0.4,0-0.8,0.1-1.2,0.4c-0.4,0.3-0.6,0.6-0.8,1.1c-0.2,0.7-0.3,1.5-0.3,2.4v6.2L128.2,221.2L128.2,221.2z"
		/>
	<path class="st2" d="M135.9,207v-2.3h2v2.3H135.9z M135.9,221.2v-11.9h2v11.9H135.9z"/>
	<path class="st2" d="M148.8,219.7c-0.8,0.6-1.5,1.1-2.2,1.4c-0.7,0.3-1.4,0.4-2.2,0.4c-1.3,0-2.3-0.3-3-1s-1.1-1.5-1.1-2.4
		c0-0.6,0.1-1.1,0.4-1.6c0.3-0.5,0.6-0.9,1-1.2s0.9-0.5,1.4-0.7c0.4-0.1,1-0.2,1.8-0.3c1.6-0.2,2.8-0.4,3.6-0.7c0-0.3,0-0.4,0-0.5
		c0-0.8-0.2-1.4-0.6-1.7c-0.5-0.5-1.3-0.7-2.3-0.7c-0.9,0-1.6,0.2-2.1,0.5c-0.4,0.3-0.8,0.9-1,1.8l-2-0.3c0.2-0.9,0.5-1.5,0.9-2.1
		s1-0.9,1.8-1.2s1.7-0.4,2.7-0.4s1.9,0.1,2.5,0.4c0.6,0.2,1.1,0.5,1.4,0.9s0.5,0.8,0.6,1.4c0.1,0.3,0.1,1,0.1,1.9v2.7
		c0,1.9,0,3.1,0.1,3.6s0.3,1,0.5,1.4H149C149,220.8,148.9,220.3,148.8,219.7L148.8,219.7z M148.6,215.2c-0.7,0.3-1.8,0.6-3.3,0.8
		c-0.8,0.1-1.4,0.2-1.8,0.4s-0.6,0.4-0.8,0.7s-0.3,0.6-0.3,1c0,0.5,0.2,1,0.6,1.4s1,0.5,1.8,0.5s1.5-0.2,2.1-0.5s1.1-0.8,1.3-1.4
		c0.2-0.5,0.3-1.1,0.3-2L148.6,215.2L148.6,215.2z"/>
	<path class="st2" d="M153.8,221.2v-16.5h2v16.5H153.8z"/>
	<path class="st2" d="M165.6,221.2v-16.5h5.7c1.3,0,2.3,0.1,2.9,0.2c0.9,0.2,1.8,0.6,2.4,1.2c0.9,0.7,1.5,1.7,1.9,2.8
		s0.6,2.4,0.6,3.9c0,1.2-0.1,2.4-0.4,3.3s-0.7,1.8-1.1,2.4s-1,1.1-1.5,1.5s-1.2,0.6-2,0.8s-1.6,0.3-2.6,0.3L165.6,221.2L165.6,221.2
		z M167.8,219.2h3.5c1.1,0,1.9-0.1,2.6-0.3s1.1-0.5,1.5-0.9c0.5-0.5,0.9-1.2,1.2-2.1c0.3-0.9,0.4-1.9,0.4-3.2c0-1.7-0.3-3-0.9-4
		c-0.6-0.9-1.2-1.5-2.1-1.9c-0.6-0.2-1.5-0.3-2.8-0.3h-3.5L167.8,219.2L167.8,219.2z"/>
	<path class="st2" d="M190.1,217.3l2.1,0.3c-0.3,1.2-0.9,2.2-1.8,2.8s-2,1-3.4,1c-1.7,0-3.1-0.5-4.1-1.6s-1.5-2.6-1.5-4.5
		s0.5-3.6,1.6-4.7s2.4-1.7,4-1.7s2.9,0.5,3.9,1.6s1.5,2.6,1.5,4.6c0,0.1,0,0.3,0,0.5h-8.9c0.1,1.3,0.4,2.3,1.1,3s1.5,1,2.5,1
		c0.7,0,1.4-0.2,1.9-0.6C189.4,218.8,189.8,218.2,190.1,217.3L190.1,217.3z M183.4,214.1h6.7c-0.1-1-0.3-1.8-0.8-2.3
		c-0.6-0.8-1.5-1.2-2.5-1.2c-0.9,0-1.7,0.3-2.3,0.9C183.9,212.2,183.5,213,183.4,214.1L183.4,214.1z"/>
	<path class="st2" d="M202.5,216.8l2,0.3c-0.2,1.4-0.8,2.4-1.7,3.2s-2,1.2-3.3,1.2c-1.6,0-2.9-0.5-3.9-1.6s-1.5-2.6-1.5-4.6
		c0-1.3,0.2-2.4,0.6-3.4s1.1-1.7,1.9-2.2s1.8-0.7,2.9-0.7c1.3,0,2.4,0.3,3.2,1s1.4,1.6,1.6,2.8l-2,0.3c-0.2-0.8-0.5-1.4-1-1.8
		c-0.5-0.4-1.1-0.6-1.7-0.6c-1,0-1.9,0.4-2.5,1.1c-0.6,0.7-0.9,1.9-0.9,3.5s0.3,2.8,0.9,3.5c0.6,0.7,1.4,1.1,2.4,1.1
		c0.8,0,1.5-0.2,2-0.7C202,218.5,202.4,217.8,202.5,216.8L202.5,216.8z"/>
	<path class="st2" d="M214,219.7c-0.8,0.6-1.5,1.1-2.2,1.4c-0.7,0.3-1.4,0.4-2.2,0.4c-1.3,0-2.3-0.3-3-1s-1.1-1.5-1.1-2.4
		c0-0.6,0.1-1.1,0.4-1.6c0.3-0.5,0.6-0.9,1-1.2s0.9-0.5,1.4-0.7c0.4-0.1,1-0.2,1.8-0.3c1.6-0.2,2.8-0.4,3.6-0.7c0-0.3,0-0.4,0-0.5
		c0-0.8-0.2-1.4-0.6-1.7c-0.5-0.5-1.3-0.7-2.3-0.7c-0.9,0-1.6,0.2-2.1,0.5c-0.4,0.3-0.8,0.9-1,1.8l-2-0.3c0.2-0.9,0.5-1.5,0.9-2.1
		s1-0.9,1.8-1.2s1.7-0.4,2.7-0.4s1.9,0.1,2.5,0.4c0.6,0.2,1.1,0.5,1.4,0.9s0.5,0.8,0.6,1.4c0.1,0.3,0.1,1,0.1,1.9v2.7
		c0,1.9,0,3.1,0.1,3.6s0.3,1,0.5,1.4h-2.1C214.2,220.8,214,220.3,214,219.7L214,219.7z M213.8,215.2c-0.7,0.3-1.8,0.6-3.3,0.8
		c-0.8,0.1-1.4,0.2-1.8,0.4s-0.6,0.4-0.8,0.7s-0.3,0.6-0.3,1c0,0.5,0.2,1,0.6,1.4s1,0.5,1.8,0.5s1.5-0.2,2.1-0.5s1.1-0.8,1.3-1.4
		c0.2-0.5,0.3-1.1,0.3-2L213.8,215.2L213.8,215.2z"/>
	<path class="st2" d="M219,221.2v-11.9h1.8v1.8c0.5-0.9,0.9-1.4,1.3-1.7c0.4-0.3,0.8-0.4,1.3-0.4c0.7,0,1.4,0.2,2.1,0.6l-0.7,1.9
		c-0.5-0.3-1-0.4-1.5-0.4c-0.4,0-0.8,0.1-1.2,0.4c-0.4,0.3-0.6,0.6-0.8,1.1c-0.2,0.7-0.3,1.5-0.3,2.4v6.2L219,221.2L219,221.2z"/>
	<path class="st2" d="M228.5,221.2h-1.9v-16.5h2v5.9c0.9-1.1,1.9-1.6,3.3-1.6c0.7,0,1.4,0.1,2.1,0.4c0.6,0.3,1.2,0.7,1.6,1.2
		c0.4,0.5,0.8,1.2,1,1.9c0.2,0.8,0.4,1.6,0.4,2.4c0,2-0.5,3.6-1.5,4.7c-1,1.1-2.2,1.7-3.6,1.7s-2.5-0.6-3.3-1.8L228.5,221.2
		L228.5,221.2z M228.5,215.1c0,1.4,0.2,2.5,0.6,3.1c0.6,1,1.5,1.6,2.6,1.6c0.9,0,1.6-0.4,2.3-1.1c0.6-0.8,1-1.9,1-3.4
		s-0.3-2.7-0.9-3.4c-0.6-0.7-1.4-1.1-2.2-1.1s-1.6,0.4-2.3,1.1S228.5,213.7,228.5,215.1L228.5,215.1z"/>
	<path class="st2" d="M238.7,215.2c0-2.2,0.6-3.8,1.8-4.9c1-0.9,2.3-1.3,3.8-1.3c1.6,0,3,0.5,4,1.6s1.6,2.6,1.6,4.4
		c0,1.5-0.2,2.7-0.7,3.6s-1.1,1.6-2,2.1s-1.8,0.7-2.9,0.7c-1.7,0-3-0.5-4.1-1.6S238.7,217.2,238.7,215.2L238.7,215.2z M240.8,215.2
		c0,1.5,0.3,2.7,1,3.4s1.5,1.1,2.5,1.1s1.8-0.4,2.5-1.1s1-1.9,1-3.5c0-1.5-0.3-2.6-1-3.4s-1.5-1.1-2.5-1.1s-1.9,0.4-2.5,1.1
		C241.1,212.5,240.8,213.7,240.8,215.2L240.8,215.2z"/>
	<path class="st2" d="M252.2,221.2v-11.9h1.8v1.7c0.9-1.3,2.1-2,3.8-2c0.7,0,1.4,0.1,2,0.4s1,0.6,1.4,1c0.3,0.4,0.5,0.9,0.6,1.5
		c0.1,0.4,0.1,1,0.1,2v7.3h-2V214c0-0.8-0.1-1.4-0.2-1.9s-0.4-0.7-0.8-1s-0.9-0.4-1.4-0.4c-0.9,0-1.6,0.3-2.2,0.8
		c-0.6,0.6-0.9,1.6-0.9,3.1v6.5L252.2,221.2L252.2,221.2z"/>
	<path class="st2" d="M265,207v-2.3h2v2.3H265z M265,221.2v-11.9h2v11.9H265z"/>
	<path class="st2" d="M269.3,217.6l2-0.3c0.1,0.8,0.4,1.4,0.9,1.8s1.2,0.6,2.1,0.6s1.6-0.2,2.1-0.6s0.7-0.8,0.7-1.3
		s-0.2-0.8-0.6-1.1c-0.3-0.2-1-0.4-2.1-0.7c-1.5-0.4-2.5-0.7-3.1-1s-1-0.6-1.3-1.1s-0.4-1-0.4-1.6c0-0.5,0.1-1,0.4-1.5
		s0.6-0.8,1-1.1c0.3-0.2,0.7-0.4,1.3-0.6c0.5-0.2,1.1-0.2,1.8-0.2c0.9,0,1.8,0.1,2.5,0.4c0.7,0.3,1.2,0.6,1.6,1.1
		c0.3,0.5,0.6,1.1,0.7,1.9l-2,0.3c-0.1-0.6-0.4-1.1-0.8-1.4c-0.4-0.3-1-0.5-1.8-0.5c-0.9,0-1.6,0.1-2,0.5c-0.4,0.3-0.6,0.7-0.6,1.1
		c0,0.3,0.1,0.5,0.2,0.7c0.2,0.2,0.4,0.4,0.8,0.5c0.2,0.1,0.8,0.2,1.8,0.5c1.4,0.4,2.4,0.7,3,0.9s1,0.6,1.3,1.1s0.5,1,0.5,1.7
		s-0.2,1.3-0.6,1.9c-0.4,0.6-1,1.1-1.7,1.4c-0.7,0.3-1.6,0.5-2.5,0.5c-1.5,0-2.7-0.3-3.5-1C270.1,219.8,269.6,218.8,269.3,217.6
		L269.3,217.6z"/>
	<path class="st2" d="M289.4,219.7c-0.8,0.6-1.5,1.1-2.2,1.4c-0.7,0.3-1.4,0.4-2.2,0.4c-1.3,0-2.3-0.3-3-1c-0.7-0.6-1.1-1.5-1.1-2.4
		c0-0.6,0.1-1.1,0.4-1.6s0.6-0.9,1-1.2s0.9-0.5,1.5-0.7c0.4-0.1,1-0.2,1.8-0.3c1.6-0.2,2.8-0.4,3.6-0.7c0-0.3,0-0.4,0-0.5
		c0-0.8-0.2-1.4-0.6-1.7c-0.5-0.5-1.3-0.7-2.3-0.7s-1.6,0.2-2.1,0.5s-0.8,0.9-1,1.8l-2-0.3c0.2-0.9,0.5-1.5,0.9-2.1s1-0.9,1.8-1.2
		s1.7-0.4,2.7-0.4s1.9,0.1,2.5,0.4c0.6,0.2,1.1,0.5,1.4,0.9s0.5,0.8,0.6,1.4c0.1,0.3,0.1,1,0.1,1.9v2.7c0,1.9,0,3.1,0.1,3.6
		s0.3,1,0.5,1.4h-2.1C289.6,220.8,289.5,220.3,289.4,219.7L289.4,219.7z M289.3,215.2c-0.7,0.3-1.8,0.6-3.3,0.8
		c-0.8,0.1-1.4,0.2-1.8,0.4s-0.6,0.4-0.8,0.7c-0.2,0.3-0.3,0.6-0.3,1c0,0.5,0.2,1,0.6,1.4s1,0.5,1.8,0.5s1.5-0.2,2.1-0.5
		s1-0.8,1.3-1.4c0.2-0.5,0.3-1.1,0.3-2L289.3,215.2L289.3,215.2z"/>
	<path class="st2" d="M298.9,219.4l0.3,1.8c-0.6,0.1-1.1,0.2-1.5,0.2c-0.7,0-1.3-0.1-1.7-0.4c-0.4-0.2-0.7-0.5-0.9-0.9
		c-0.2-0.4-0.2-1.2-0.2-2.4v-6.9h-1.5v-1.6h1.5v-2.9l2-1.2v4.2h2v1.6h-2v7c0,0.6,0,0.9,0.1,1.1c0.1,0.2,0.2,0.3,0.4,0.4
		c0.2,0.1,0.4,0.1,0.7,0.1C298.2,219.4,298.5,219.4,298.9,219.4L298.9,219.4z"/>
	<path class="st2" d="M300.8,207v-2.3h2v2.3H300.8z M300.8,221.2v-11.9h2v11.9H300.8z"/>
	<path class="st2" d="M305.2,215.2c0-2.2,0.6-3.8,1.8-4.9c1-0.9,2.3-1.3,3.8-1.3c1.6,0,3,0.5,4,1.6s1.6,2.6,1.6,4.4
		c0,1.5-0.2,2.7-0.7,3.6c-0.5,0.9-1.1,1.6-2,2.1s-1.8,0.7-2.9,0.7c-1.7,0-3-0.5-4-1.6S305.2,217.2,305.2,215.2L305.2,215.2z
		 M307.3,215.2c0,1.5,0.3,2.7,1,3.4s1.5,1.1,2.5,1.1s1.8-0.4,2.5-1.1c0.7-0.8,1-1.9,1-3.5c0-1.5-0.3-2.6-1-3.4s-1.5-1.1-2.5-1.1
		s-1.9,0.4-2.5,1.1C307.6,212.5,307.3,213.7,307.3,215.2L307.3,215.2z"/>
	<path class="st2" d="M318.7,221.2v-11.9h1.8v1.7c0.9-1.3,2.1-2,3.8-2c0.7,0,1.4,0.1,2,0.4s1,0.6,1.4,1c0.3,0.4,0.5,0.9,0.6,1.5
		c0.1,0.4,0.1,1,0.1,2v7.3h-2V214c0-0.8-0.1-1.4-0.2-1.9s-0.4-0.7-0.8-1s-0.9-0.4-1.4-0.4c-0.9,0-1.6,0.3-2.2,0.8
		c-0.6,0.6-0.9,1.6-0.9,3.1v6.5L318.7,221.2L318.7,221.2z"/>
	<path class="st2" d="M338.1,221.2v-16.5h2.2l8.6,12.9v-12.9h2.1v16.5h-2.2l-8.6-12.9v12.9H338.1z"/>
	<path class="st2" d="M353.8,215.2c0-2.2,0.6-3.8,1.8-4.9c1-0.9,2.3-1.3,3.8-1.3c1.6,0,3,0.5,4,1.6s1.6,2.6,1.6,4.4
		c0,1.5-0.2,2.7-0.7,3.6c-0.5,0.9-1.1,1.6-2,2.1s-1.8,0.7-2.9,0.7c-1.7,0-3-0.5-4-1.6S353.8,217.2,353.8,215.2L353.8,215.2z
		 M355.8,215.2c0,1.5,0.3,2.7,1,3.4s1.5,1.1,2.5,1.1s1.8-0.4,2.5-1.1c0.7-0.8,1-1.9,1-3.5c0-1.5-0.3-2.6-1-3.4s-1.5-1.1-2.5-1.1
		s-1.9,0.4-2.5,1.1C356.2,212.5,355.8,213.7,355.8,215.2L355.8,215.2z"/>
	<path class="st2" d="M367.3,221.2v-11.9h1.8v1.8c0.5-0.9,0.9-1.4,1.3-1.7s0.8-0.4,1.3-0.4c0.7,0,1.4,0.2,2.1,0.6l-0.7,1.9
		c-0.5-0.3-1-0.4-1.5-0.4c-0.4,0-0.8,0.1-1.2,0.4c-0.4,0.3-0.6,0.6-0.8,1.1c-0.2,0.7-0.3,1.5-0.3,2.4v6.2L367.3,221.2L367.3,221.2z"
		/>
	<path class="st2" d="M379.4,219.4l0.3,1.8c-0.6,0.1-1.1,0.2-1.5,0.2c-0.7,0-1.3-0.1-1.7-0.4c-0.4-0.2-0.7-0.5-0.9-0.9
		c-0.2-0.4-0.2-1.2-0.2-2.4v-6.9h-1.5v-1.6h1.5v-2.9l2-1.2v4.2h2v1.6h-2v7c0,0.6,0,0.9,0.1,1.1c0.1,0.2,0.2,0.3,0.4,0.4
		c0.2,0.1,0.4,0.1,0.7,0.1C378.7,219.4,379,219.4,379.4,219.4L379.4,219.4z"/>
	<path class="st2" d="M381.4,221.2v-16.5h2v5.9c0.9-1.1,2.1-1.6,3.6-1.6c0.9,0,1.6,0.2,2.3,0.5s1.1,0.8,1.4,1.4s0.4,1.5,0.4,2.7v7.6
		h-2v-7.6c0-1-0.2-1.8-0.7-2.2s-1.1-0.7-1.9-0.7c-0.6,0-1.2,0.2-1.7,0.5s-0.9,0.7-1.1,1.3c-0.2,0.5-0.3,1.3-0.3,2.2v6.5L381.4,221.2
		L381.4,221.2z"/>
	<path class="st2" d="M402.3,217.3l2.1,0.3c-0.3,1.2-0.9,2.2-1.8,2.8c-0.9,0.7-2,1-3.4,1c-1.8,0-3.1-0.5-4.1-1.6s-1.5-2.6-1.5-4.5
		s0.5-3.6,1.5-4.7s2.4-1.7,4-1.7s2.9,0.5,3.9,1.6s1.5,2.6,1.5,4.6c0,0.1,0,0.3,0,0.5h-8.9c0.1,1.3,0.5,2.3,1.1,3s1.5,1,2.5,1
		c0.7,0,1.4-0.2,1.9-0.6C401.6,218.8,402,218.2,402.3,217.3L402.3,217.3z M395.7,214.1h6.7c-0.1-1-0.3-1.8-0.8-2.3
		c-0.6-0.8-1.5-1.2-2.5-1.2c-0.9,0-1.7,0.3-2.3,0.9S395.8,213,395.7,214.1L395.7,214.1z"/>
	<path class="st2" d="M406.9,221.2v-11.9h1.8v1.8c0.5-0.9,0.9-1.4,1.3-1.7s0.8-0.4,1.3-0.4c0.7,0,1.4,0.2,2.1,0.6l-0.7,1.9
		c-0.5-0.3-1-0.4-1.5-0.4c-0.4,0-0.8,0.1-1.2,0.4c-0.4,0.3-0.6,0.6-0.8,1.1c-0.2,0.7-0.3,1.5-0.3,2.4v6.2L406.9,221.2L406.9,221.2z"
		/>
	<path class="st2" d="M414.6,221.2v-11.9h1.8v1.7c0.9-1.3,2.1-2,3.8-2c0.7,0,1.4,0.1,2,0.4s1,0.6,1.4,1c0.3,0.4,0.5,0.9,0.6,1.5
		c0.1,0.4,0.1,1,0.1,2v7.3h-2V214c0-0.8-0.1-1.4-0.2-1.9s-0.4-0.7-0.8-1s-0.9-0.4-1.4-0.4c-0.9,0-1.6,0.3-2.2,0.8
		c-0.6,0.6-0.9,1.6-0.9,3.1v6.5L414.6,221.2L414.6,221.2z"/>
	<path class="st2" d="M434.4,221.2v-16.5h2.2v16.5H434.4z"/>
	<path class="st2" d="M440.2,221.2v-11.9h1.8v1.8c0.5-0.9,0.9-1.4,1.3-1.7s0.8-0.4,1.3-0.4c0.7,0,1.4,0.2,2.1,0.6l-0.7,1.9
		c-0.5-0.3-1-0.4-1.5-0.4c-0.4,0-0.8,0.1-1.2,0.4c-0.4,0.3-0.6,0.6-0.8,1.1c-0.2,0.7-0.3,1.5-0.3,2.4v6.2L440.2,221.2L440.2,221.2z"
		/>
	<path class="st2" d="M456,217.3l2.1,0.3c-0.3,1.2-0.9,2.2-1.8,2.8c-0.9,0.7-2,1-3.4,1c-1.8,0-3.1-0.5-4.1-1.6s-1.5-2.6-1.5-4.5
		s0.5-3.6,1.5-4.7s2.4-1.7,4-1.7s2.9,0.5,3.9,1.6s1.5,2.6,1.5,4.6c0,0.1,0,0.3,0,0.5h-8.9c0.1,1.3,0.5,2.3,1.1,3s1.5,1,2.5,1
		c0.7,0,1.4-0.2,1.9-0.6C455.3,218.8,455.7,218.2,456,217.3L456,217.3z M449.4,214.1h6.7c-0.1-1-0.3-1.8-0.8-2.3
		c-0.6-0.8-1.5-1.2-2.5-1.2c-0.9,0-1.7,0.3-2.3,0.9S449.4,213,449.4,214.1L449.4,214.1z"/>
	<path class="st2" d="M460.6,221.2v-16.5h2v16.5H460.6z"/>
	<path class="st2" d="M473.5,219.7c-0.8,0.6-1.5,1.1-2.2,1.4c-0.7,0.3-1.4,0.4-2.2,0.4c-1.3,0-2.3-0.3-3-1c-0.7-0.6-1.1-1.5-1.1-2.4
		c0-0.6,0.1-1.1,0.4-1.6s0.6-0.9,1-1.2s0.9-0.5,1.5-0.7c0.4-0.1,1-0.2,1.8-0.3c1.6-0.2,2.8-0.4,3.6-0.7c0-0.3,0-0.4,0-0.5
		c0-0.8-0.2-1.4-0.6-1.7c-0.5-0.5-1.3-0.7-2.3-0.7s-1.6,0.2-2.1,0.5s-0.8,0.9-1,1.8l-2-0.3c0.2-0.9,0.5-1.5,0.9-2.1s1-0.9,1.8-1.2
		s1.7-0.4,2.7-0.4s1.9,0.1,2.5,0.4c0.6,0.2,1.1,0.5,1.4,0.9s0.5,0.8,0.6,1.4c0.1,0.3,0.1,1,0.1,1.9v2.7c0,1.9,0,3.1,0.1,3.6
		s0.3,1,0.5,1.4h-2.1C473.7,220.8,473.6,220.3,473.5,219.7L473.5,219.7z M473.3,215.2c-0.7,0.3-1.8,0.6-3.3,0.8
		c-0.8,0.1-1.4,0.2-1.8,0.4s-0.6,0.4-0.8,0.7c-0.2,0.3-0.3,0.6-0.3,1c0,0.5,0.2,1,0.6,1.4s1,0.5,1.8,0.5s1.5-0.2,2.1-0.5
		s1-0.8,1.3-1.4c0.2-0.5,0.3-1.1,0.3-2L473.3,215.2L473.3,215.2z"/>
	<path class="st2" d="M478.5,221.2v-11.9h1.8v1.7c0.9-1.3,2.1-2,3.8-2c0.7,0,1.4,0.1,2,0.4s1,0.6,1.4,1c0.3,0.4,0.5,0.9,0.6,1.5
		c0.1,0.4,0.1,1,0.1,2v7.3h-2V214c0-0.8-0.1-1.4-0.2-1.9s-0.4-0.7-0.8-1s-0.9-0.4-1.4-0.4c-0.9,0-1.6,0.3-2.2,0.8
		c-0.6,0.6-0.9,1.6-0.9,3.1v6.5L478.5,221.2L478.5,221.2z"/>
	<path class="st2" d="M499.1,221.2v-1.5c-0.8,1.2-1.9,1.8-3.3,1.8c-1,0-1.8-0.3-2.6-0.8c-0.8-0.5-1.4-1.3-1.9-2.2
		c-0.4-0.9-0.7-2-0.7-3.2s0.2-2.3,0.6-3.2c0.4-1,1-1.7,1.8-2.2s1.7-0.8,2.7-0.8c0.7,0,1.4,0.1,1.9,0.5c0.6,0.3,1,0.7,1.4,1.2v-5.9h2
		v16.5L499.1,221.2L499.1,221.2z M492.7,215.2c0,1.5,0.3,2.7,1,3.4c0.6,0.8,1.4,1.1,2.3,1.1s1.6-0.4,2.2-1.1s0.9-1.8,0.9-3.3
		c0-1.6-0.3-2.8-0.9-3.6s-1.4-1.1-2.3-1.1s-1.6,0.4-2.2,1.1C493,212.5,492.7,213.6,492.7,215.2L492.7,215.2z"/>
</g>
</svg>
