<?xml version="1.0" encoding="UTF-8"?>
<svg id="Layer_2" data-name="Layer 2" xmlns="http://www.w3.org/2000/svg" viewBox="0 0 500.93 221.43">
  <defs>
    <style>
      .cls-1 {
        fill: #0fabe3;
      }

      .cls-2 {
        fill: #3da336;
      }

      .cls-3 {
        fill: #6d6d6d;
      }

      .cls-4 {
        fill: #78b88f;
      }
    </style>
  </defs>
  <g id="Layer_3" data-name="Layer 3">
    <g>
      <path class="cls-4" d="M162.14,70.63c-9.72,10.8-38.89,43.19-38.89,43.19-17.34,19.24-38.01,30-64.16,20.35-15.66-5.78-31.67-15-45.7-27.26C3.59,98.36,.38,85.03,3.39,73.71-3.74,91,.5,110.87,15.61,123.05c10.85,8.74,32.55,26.22,43.39,34.95,19.33,15.57,49.06,12.59,66.41-6.65,9.72-10.79,29.17-32.39,38.89-43.19,13.54-15.05,15.46-35.54,6.45-51.21-1.98,4.83-4.81,9.49-8.6,13.7Z"/>
      <path class="cls-2" d="M78.01,14.07c10.85,8.73,43.38,34.95,43.38,34.95,19.33,15.56,29.59,34.77,18.12,60.21-6.86,15.23-17.36,30.97-30.94,44.98-9.49,9.8-23.65,13.54-35.39,11.24,17.8,5.93,38.91,.87,52.46-14.17,9.72-10.79,29.16-32.39,38.89-43.18,17.32-19.25,15.7-47.49-3.62-63.05-10.85-8.73-32.54-26.22-43.38-34.95-15.12-12.16-36.55-12.96-53.48-3.56,4.98,1.67,9.72,4.11,13.96,7.52Z"/>
      <path class="cls-1" d="M14.13,97.32c9.73-10.79,38.91-43.18,38.91-43.18,17.33-19.24,38.01-29.99,64.16-20.35,15.65,5.79,31.68,15.01,45.69,27.26,9.81,8.55,13.02,21.88,10.02,33.21,7.12-17.3,2.88-37.18-12.23-49.35-10.85-8.74-32.54-26.21-43.39-34.95-19.34-15.55-49.07-12.57-66.4,6.65-9.73,10.8-29.18,32.39-38.91,43.19C-1.57,74.86-3.49,95.35,5.53,111.04c1.99-4.85,4.82-9.5,8.6-13.71Z"/>
    </g>
    <g>
      <path class="cls-3" d="M203.45,149.32V46.09h20.84v103.23h-20.84Z"/>
      <path class="cls-3" d="M244.08,46.09h38.09c8.59,0,15.14,.66,19.65,1.97,6.06,1.78,11.24,4.95,15.56,9.51,4.32,4.55,7.6,10.13,9.86,16.72,2.25,6.6,3.38,14.73,3.38,24.4,0,8.5-1.06,15.82-3.17,21.97-2.58,7.51-6.27,13.59-11.05,18.24-3.62,3.52-8.5,6.27-14.65,8.24-4.6,1.46-10.75,2.18-18.45,2.18h-39.22V46.09Zm20.84,17.46v68.37h15.56c5.82,0,10.02-.33,12.6-.99,3.38-.85,6.18-2.28,8.41-4.3,2.23-2.02,4.05-5.34,5.46-9.96,1.41-4.62,2.11-10.93,2.11-18.91s-.71-14.11-2.11-18.38c-1.41-4.27-3.38-7.6-5.91-10s-5.75-4.01-9.65-4.86c-2.91-.66-8.62-.99-17.11-.99h-9.37Z"/>
      <path class="cls-3" d="M348.5,149.32V46.09h20.28l42.25,68.94V46.09h19.36v103.23h-20.91l-41.61-67.32v67.32h-19.36Z"/>
      <path class="cls-3" d="M451.8,149.32V46.09h20.84v103.23h-20.84Z"/>
    </g>
    <g>
      <path d="M66.23,221.16v-16.46h2.18v16.46h-2.18Z"/>
      <path d="M71.99,221.16v-11.93h1.82v1.7c.88-1.31,2.14-1.97,3.8-1.97,.72,0,1.38,.13,1.98,.39,.6,.26,1.05,.6,1.35,1.02,.3,.42,.51,.92,.63,1.49,.07,.38,.11,1.03,.11,1.97v7.33h-2.02v-7.25c0-.82-.08-1.44-.24-1.85-.16-.41-.44-.73-.84-.98-.4-.24-.87-.37-1.41-.37-.86,0-1.6,.27-2.23,.82-.63,.55-.94,1.58-.94,3.11v6.51h-2.02Z"/>
      <path d="M92.52,221.16v-1.5c-.76,1.18-1.87,1.77-3.34,1.77-.95,0-1.82-.26-2.62-.79-.8-.52-1.42-1.26-1.85-2.2-.44-.94-.66-2.02-.66-3.24s.2-2.27,.6-3.24c.4-.97,.99-1.71,1.79-2.23s1.68-.78,2.66-.78c.72,0,1.36,.15,1.92,.46,.56,.3,1.02,.7,1.37,1.18v-5.91h2.01v16.46h-1.88Zm-6.39-5.95c0,1.53,.32,2.67,.97,3.43,.64,.76,1.4,1.13,2.28,1.13s1.63-.36,2.25-1.08c.62-.72,.93-1.82,.93-3.31,0-1.63-.31-2.83-.94-3.59s-1.4-1.15-2.32-1.15-1.65,.37-2.25,1.1c-.6,.73-.9,1.89-.9,3.47Z"/>
      <path d="M105.39,221.16v-1.75c-.93,1.35-2.19,2.02-3.78,2.02-.7,0-1.36-.13-1.97-.4-.61-.27-1.06-.61-1.36-1.02-.3-.41-.5-.91-.62-1.5-.08-.4-.12-1.03-.12-1.89v-7.39h2.02v6.62c0,1.06,.04,1.77,.12,2.13,.13,.53,.4,.95,.81,1.25,.41,.3,.92,.46,1.53,.46s1.18-.16,1.71-.47c.53-.31,.91-.73,1.13-1.27,.22-.54,.33-1.31,.33-2.33v-6.39h2.02v11.93h-1.81Z"/>
      <path d="M109.55,217.6l2-.31c.11,.8,.42,1.42,.94,1.84,.51,.43,1.23,.64,2.15,.64s1.62-.19,2.07-.57c.45-.38,.67-.82,.67-1.33,0-.46-.2-.82-.6-1.08-.28-.18-.97-.41-2.07-.69-1.48-.37-2.51-.7-3.08-.97-.57-.27-1.01-.65-1.3-1.13-.3-.48-.44-1.02-.44-1.6,0-.53,.12-1.02,.36-1.48,.24-.45,.57-.83,.99-1.13,.31-.23,.74-.43,1.29-.59,.54-.16,1.12-.24,1.75-.24,.94,0,1.76,.13,2.46,.4,.71,.27,1.23,.63,1.57,1.09,.34,.46,.57,1.08,.7,1.85l-1.98,.27c-.09-.61-.35-1.09-.78-1.44-.43-.34-1.04-.52-1.82-.52-.93,0-1.59,.15-1.99,.46-.4,.31-.6,.67-.6,1.08,0,.26,.08,.5,.25,.71,.16,.22,.42,.4,.77,.54,.2,.08,.8,.25,1.79,.52,1.43,.38,2.43,.69,2.99,.94,.57,.24,1.01,.6,1.33,1.06,.32,.46,.48,1.04,.48,1.73s-.2,1.31-.59,1.9c-.39,.6-.96,1.06-1.7,1.38-.74,.33-1.58,.49-2.52,.49-1.55,0-2.73-.32-3.54-.97-.81-.64-1.33-1.6-1.56-2.86Z"/>
      <path d="M126.28,219.35l.29,1.79c-.57,.12-1.08,.18-1.53,.18-.73,0-1.3-.12-1.71-.35-.4-.23-.69-.54-.85-.92-.16-.38-.25-1.17-.25-2.39v-6.86h-1.48v-1.57h1.48v-2.95l2.01-1.21v4.17h2.03v1.57h-2.03v6.97c0,.58,.04,.95,.11,1.11,.07,.17,.19,.3,.35,.39,.16,.1,.39,.15,.69,.15,.22,0,.52-.03,.89-.08Z"/>
      <path d="M128.23,221.16v-11.93h1.82v1.81c.46-.85,.89-1.4,1.29-1.67,.39-.27,.83-.4,1.3-.4,.68,0,1.37,.22,2.08,.65l-.7,1.88c-.49-.29-.99-.44-1.48-.44-.44,0-.84,.13-1.19,.4-.35,.27-.6,.63-.75,1.11-.22,.72-.34,1.5-.34,2.36v6.24h-2.02Z"/>
      <path d="M135.92,207.02v-2.33h2.02v2.33h-2.02Zm0,14.14v-11.93h2.02v11.93h-2.02Z"/>
      <path d="M148.81,219.69c-.75,.64-1.47,1.08-2.16,1.35-.69,.26-1.44,.39-2.23,.39-1.31,0-2.32-.32-3.02-.96-.7-.64-1.06-1.46-1.06-2.45,0-.58,.13-1.12,.4-1.6,.27-.48,.61-.87,1.04-1.16,.43-.29,.92-.51,1.45-.66,.4-.11,1-.21,1.8-.3,1.63-.19,2.83-.43,3.6-.7,0-.28,.01-.45,.01-.53,0-.82-.19-1.4-.57-1.74-.52-.46-1.28-.68-2.3-.68-.95,0-1.65,.17-2.11,.5-.45,.33-.79,.92-1.01,1.77l-1.98-.27c.18-.85,.48-1.53,.89-2.05s1.01-.92,1.79-1.2c.78-.28,1.68-.42,2.71-.42s1.85,.12,2.48,.36c.64,.24,1.1,.54,1.4,.9s.51,.82,.63,1.38c.07,.34,.1,.97,.1,1.86v2.7c0,1.88,.04,3.07,.13,3.57,.09,.5,.26,.98,.51,1.43h-2.11c-.21-.42-.34-.91-.4-1.47Zm-.17-4.51c-.73,.3-1.83,.55-3.3,.76-.83,.12-1.42,.25-1.76,.4-.34,.15-.61,.37-.8,.66-.19,.29-.28,.61-.28,.96,0,.54,.2,.99,.61,1.35,.41,.36,1,.54,1.79,.54s1.47-.17,2.08-.51c.61-.34,1.05-.81,1.34-1.4,.22-.46,.33-1.13,.33-2.02v-.74Z"/>
      <path d="M153.77,221.16v-16.46h2.02v16.46h-2.02Z"/>
      <path d="M165.57,221.16v-16.46h5.67c1.28,0,2.26,.08,2.93,.24,.94,.22,1.75,.61,2.41,1.18,.87,.73,1.52,1.67,1.95,2.81,.43,1.14,.65,2.45,.65,3.91,0,1.25-.15,2.36-.44,3.32s-.67,1.76-1.12,2.4-.96,1.13-1.5,1.49c-.54,.36-1.2,.64-1.96,.83-.77,.19-1.65,.28-2.65,.28h-5.94Zm2.18-1.94h3.52c1.09,0,1.94-.1,2.56-.3,.62-.2,1.11-.49,1.48-.85,.52-.52,.92-1.21,1.21-2.08,.29-.87,.43-1.93,.43-3.17,0-1.72-.28-3.04-.85-3.97-.57-.92-1.25-1.54-2.06-1.86-.58-.22-1.52-.34-2.82-.34h-3.46v12.58Z"/>
      <path d="M190.09,217.32l2.09,.26c-.33,1.22-.94,2.17-1.83,2.84s-2.03,1.01-3.41,1.01c-1.74,0-3.13-.54-4.15-1.61-1.02-1.07-1.53-2.58-1.53-4.52s.52-3.56,1.55-4.67c1.03-1.11,2.37-1.66,4.02-1.66s2.9,.54,3.91,1.63c1.01,1.08,1.52,2.61,1.52,4.58,0,.12,0,.3-.01,.54h-8.89c.07,1.31,.45,2.31,1.11,3.01s1.5,1.04,2.49,1.04c.74,0,1.37-.19,1.9-.58,.52-.39,.94-1.01,1.25-1.86Zm-6.64-3.27h6.66c-.09-1-.34-1.76-.76-2.26-.64-.78-1.48-1.17-2.5-1.17-.93,0-1.71,.31-2.34,.93-.63,.62-.98,1.45-1.05,2.49Z"/>
      <path d="M202.5,216.79l1.99,.26c-.22,1.37-.77,2.44-1.67,3.22-.9,.77-1.99,1.16-3.3,1.16-1.63,0-2.94-.53-3.94-1.6-.99-1.07-1.49-2.6-1.49-4.59,0-1.29,.21-2.42,.64-3.38s1.08-1.69,1.95-2.17c.87-.48,1.82-.72,2.85-.72,1.3,0,2.35,.33,3.18,.98,.82,.66,1.35,1.59,1.58,2.79l-1.97,.3c-.19-.8-.52-1.4-.99-1.81-.48-.4-1.05-.61-1.72-.61-1.02,0-1.85,.37-2.48,1.09-.64,.73-.95,1.89-.95,3.46s.31,2.77,.92,3.49c.61,.73,1.42,1.09,2.4,1.09,.79,0,1.46-.24,1.99-.73,.53-.49,.87-1.24,1.01-2.25Z"/>
      <path d="M214,219.69c-.75,.64-1.47,1.08-2.16,1.35-.69,.26-1.44,.39-2.23,.39-1.31,0-2.32-.32-3.02-.96-.7-.64-1.06-1.46-1.06-2.45,0-.58,.13-1.12,.4-1.6,.27-.48,.61-.87,1.04-1.16,.43-.29,.92-.51,1.45-.66,.4-.11,1-.21,1.8-.3,1.63-.19,2.83-.43,3.6-.7,0-.28,.01-.45,.01-.53,0-.82-.19-1.4-.57-1.74-.52-.46-1.28-.68-2.3-.68-.95,0-1.65,.17-2.11,.5-.45,.33-.79,.92-1.01,1.77l-1.98-.27c.18-.85,.48-1.53,.89-2.05s1.01-.92,1.79-1.2c.78-.28,1.68-.42,2.71-.42s1.85,.12,2.48,.36c.64,.24,1.1,.54,1.4,.9s.51,.82,.63,1.38c.07,.34,.1,.97,.1,1.86v2.7c0,1.88,.04,3.07,.13,3.57,.09,.5,.26,.98,.51,1.43h-2.11c-.21-.42-.34-.91-.4-1.47Zm-.17-4.51c-.73,.3-1.83,.55-3.3,.76-.83,.12-1.42,.25-1.76,.4-.34,.15-.61,.37-.8,.66-.19,.29-.28,.61-.28,.96,0,.54,.2,.99,.61,1.35,.41,.36,1,.54,1.79,.54s1.47-.17,2.08-.51c.61-.34,1.05-.81,1.34-1.4,.22-.46,.33-1.13,.33-2.02v-.74Z"/>
      <path d="M218.98,221.16v-11.93h1.82v1.81c.46-.85,.89-1.4,1.29-1.67,.39-.27,.83-.4,1.3-.4,.68,0,1.37,.22,2.08,.65l-.7,1.88c-.49-.29-.99-.44-1.48-.44-.44,0-.84,.13-1.19,.4-.35,.27-.6,.63-.75,1.11-.22,.72-.34,1.5-.34,2.36v6.24h-2.02Z"/>
      <path d="M228.53,221.16h-1.88v-16.46h2.02v5.87c.85-1.07,1.94-1.61,3.27-1.61,.73,0,1.43,.15,2.08,.44,.65,.3,1.19,.71,1.62,1.25,.42,.54,.75,1.18,.99,1.94,.24,.76,.36,1.56,.36,2.43,0,2.04-.51,3.62-1.52,4.74-1.01,1.12-2.22,1.67-3.64,1.67s-2.51-.59-3.31-1.76v1.49Zm-.02-6.05c0,1.43,.19,2.46,.58,3.1,.64,1.04,1.5,1.56,2.58,1.56,.88,0,1.65-.38,2.29-1.15,.64-.77,.97-1.91,.97-3.43s-.31-2.71-.93-3.45c-.62-.74-1.36-1.11-2.24-1.11s-1.65,.38-2.29,1.15-.97,1.88-.97,3.33Z"/>
      <path d="M238.71,215.19c0-2.21,.61-3.84,1.84-4.91,1.03-.88,2.28-1.33,3.75-1.33,1.64,0,2.98,.54,4.02,1.61,1.04,1.08,1.56,2.56,1.56,4.45,0,1.54-.23,2.74-.69,3.62s-1.13,1.56-2.01,2.05c-.88,.49-1.84,.73-2.88,.73-1.67,0-3.02-.54-4.05-1.61-1.03-1.07-1.54-2.61-1.54-4.63Zm2.08,0c0,1.53,.33,2.67,1,3.43s1.5,1.14,2.52,1.14,1.84-.38,2.5-1.15,1-1.93,1-3.49c0-1.48-.34-2.59-1.01-3.35s-1.5-1.14-2.5-1.14-1.85,.38-2.52,1.13c-.67,.76-1,1.9-1,3.43Z"/>
      <path d="M252.25,221.16v-11.93h1.82v1.7c.88-1.31,2.14-1.97,3.79-1.97,.72,0,1.38,.13,1.98,.39,.6,.26,1.05,.6,1.35,1.02,.3,.42,.51,.92,.63,1.49,.08,.38,.11,1.03,.11,1.97v7.33h-2.02v-7.25c0-.82-.08-1.44-.24-1.85-.16-.41-.44-.73-.84-.98s-.87-.37-1.41-.37c-.86,0-1.6,.27-2.23,.82-.62,.55-.94,1.58-.94,3.11v6.51h-2.02Z"/>
      <path d="M265.05,207.02v-2.33h2.02v2.33h-2.02Zm0,14.14v-11.93h2.02v11.93h-2.02Z"/>
      <path d="M269.34,217.6l2-.31c.11,.8,.42,1.42,.94,1.84s1.23,.64,2.15,.64,1.62-.19,2.07-.57c.45-.38,.67-.82,.67-1.33,0-.46-.2-.82-.6-1.08-.28-.18-.96-.41-2.07-.69-1.48-.37-2.51-.7-3.08-.97-.57-.27-1.01-.65-1.3-1.13-.3-.48-.44-1.02-.44-1.6,0-.53,.12-1.02,.36-1.48s.58-.83,.99-1.13c.31-.23,.74-.43,1.29-.59,.54-.16,1.12-.24,1.75-.24,.94,0,1.76,.13,2.46,.4,.71,.27,1.23,.63,1.57,1.09,.34,.46,.57,1.08,.7,1.85l-1.98,.27c-.09-.61-.35-1.09-.78-1.44-.43-.34-1.04-.52-1.82-.52-.93,0-1.59,.15-1.99,.46-.4,.31-.6,.67-.6,1.08,0,.26,.08,.5,.25,.71,.16,.22,.42,.4,.77,.54,.2,.08,.8,.25,1.79,.52,1.43,.38,2.43,.69,2.99,.94,.57,.24,1.01,.6,1.33,1.06,.32,.46,.48,1.04,.48,1.73s-.2,1.31-.59,1.9c-.39,.6-.96,1.06-1.7,1.38-.74,.33-1.58,.49-2.52,.49-1.55,0-2.73-.32-3.54-.97-.81-.64-1.33-1.6-1.56-2.86Z"/>
      <path d="M289.43,219.69c-.75,.64-1.47,1.08-2.16,1.35-.69,.26-1.44,.39-2.23,.39-1.31,0-2.32-.32-3.02-.96-.7-.64-1.06-1.46-1.06-2.45,0-.58,.13-1.12,.4-1.6,.27-.48,.61-.87,1.04-1.16s.92-.51,1.45-.66c.4-.11,1-.21,1.8-.3,1.63-.19,2.83-.43,3.61-.7,0-.28,.01-.45,.01-.53,0-.82-.19-1.4-.57-1.74-.52-.46-1.28-.68-2.3-.68-.95,0-1.65,.17-2.11,.5-.45,.33-.79,.92-1,1.77l-1.98-.27c.18-.85,.47-1.53,.89-2.05s1.01-.92,1.79-1.2c.78-.28,1.68-.42,2.71-.42s1.85,.12,2.48,.36c.64,.24,1.1,.54,1.4,.9s.51,.82,.63,1.38c.07,.34,.1,.97,.1,1.86v2.7c0,1.88,.04,3.07,.13,3.57s.26,.98,.51,1.43h-2.11c-.21-.42-.34-.91-.4-1.47Zm-.17-4.51c-.73,.3-1.83,.55-3.3,.76-.83,.12-1.42,.25-1.76,.4-.34,.15-.61,.37-.8,.66-.19,.29-.28,.61-.28,.96,0,.54,.2,.99,.61,1.35s1,.54,1.79,.54,1.47-.17,2.08-.51c.61-.34,1.05-.81,1.34-1.4,.22-.46,.33-1.13,.33-2.02v-.74Z"/>
      <path d="M298.85,219.35l.29,1.79c-.57,.12-1.08,.18-1.53,.18-.73,0-1.3-.12-1.71-.35-.4-.23-.69-.54-.85-.92-.17-.38-.25-1.17-.25-2.39v-6.86h-1.48v-1.57h1.48v-2.95l2.01-1.21v4.17h2.03v1.57h-2.03v6.97c0,.58,.04,.95,.11,1.11,.07,.17,.19,.3,.35,.39,.16,.1,.39,.15,.69,.15,.22,0,.52-.03,.89-.08Z"/>
      <path d="M300.84,207.02v-2.33h2.02v2.33h-2.02Zm0,14.14v-11.93h2.02v11.93h-2.02Z"/>
      <path d="M305.19,215.19c0-2.21,.61-3.84,1.84-4.91,1.03-.88,2.28-1.33,3.75-1.33,1.64,0,2.98,.54,4.02,1.61,1.04,1.08,1.56,2.56,1.56,4.45,0,1.54-.23,2.74-.69,3.62-.46,.88-1.13,1.56-2.01,2.05-.88,.49-1.84,.73-2.88,.73-1.67,0-3.02-.54-4.05-1.61-1.03-1.07-1.54-2.61-1.54-4.63Zm2.08,0c0,1.53,.33,2.67,1,3.43s1.5,1.14,2.52,1.14,1.84-.38,2.5-1.15c.67-.76,1-1.93,1-3.49,0-1.48-.33-2.59-1-3.35s-1.5-1.14-2.5-1.14-1.85,.38-2.52,1.13c-.67,.76-1,1.9-1,3.43Z"/>
      <path d="M318.73,221.16v-11.93h1.82v1.7c.88-1.31,2.14-1.97,3.79-1.97,.72,0,1.38,.13,1.98,.39,.6,.26,1.05,.6,1.35,1.02,.3,.42,.51,.92,.63,1.49,.08,.38,.11,1.03,.11,1.97v7.33h-2.02v-7.25c0-.82-.08-1.44-.24-1.85-.16-.41-.44-.73-.84-.98s-.87-.37-1.41-.37c-.86,0-1.6,.27-2.23,.82-.62,.55-.94,1.58-.94,3.11v6.51h-2.02Z"/>
      <path d="M338.15,221.16v-16.46h2.23l8.65,12.93v-12.93h2.09v16.46h-2.23l-8.65-12.94v12.94h-2.09Z"/>
      <path d="M353.77,215.19c0-2.21,.61-3.84,1.84-4.91,1.03-.88,2.28-1.33,3.75-1.33,1.64,0,2.98,.54,4.02,1.61,1.04,1.08,1.56,2.56,1.56,4.45,0,1.54-.23,2.74-.69,3.62-.46,.88-1.13,1.56-2.01,2.05-.88,.49-1.84,.73-2.88,.73-1.67,0-3.02-.54-4.05-1.61-1.03-1.07-1.54-2.61-1.54-4.63Zm2.08,0c0,1.53,.33,2.67,1,3.43s1.5,1.14,2.52,1.14,1.84-.38,2.5-1.15c.67-.76,1-1.93,1-3.49,0-1.48-.33-2.59-1-3.35s-1.5-1.14-2.5-1.14-1.85,.38-2.52,1.13c-.67,.76-1,1.9-1,3.43Z"/>
      <path d="M367.29,221.16v-11.93h1.82v1.81c.46-.85,.89-1.4,1.29-1.67,.39-.27,.83-.4,1.3-.4,.68,0,1.37,.22,2.08,.65l-.7,1.88c-.49-.29-.99-.44-1.48-.44-.44,0-.84,.13-1.19,.4-.35,.27-.6,.63-.75,1.11-.22,.72-.34,1.5-.34,2.36v6.24h-2.02Z"/>
      <path d="M379.39,219.35l.29,1.79c-.57,.12-1.08,.18-1.53,.18-.73,0-1.3-.12-1.71-.35-.4-.23-.69-.54-.85-.92-.17-.38-.25-1.17-.25-2.39v-6.86h-1.48v-1.57h1.48v-2.95l2.01-1.21v4.17h2.03v1.57h-2.03v6.97c0,.58,.04,.95,.11,1.11,.07,.17,.19,.3,.35,.39,.16,.1,.39,.15,.69,.15,.22,0,.52-.03,.89-.08Z"/>
      <path d="M381.36,221.16v-16.46h2.02v5.91c.94-1.09,2.13-1.64,3.57-1.64,.88,0,1.65,.17,2.3,.52,.65,.35,1.12,.83,1.4,1.44,.28,.61,.42,1.5,.42,2.67v7.56h-2.02v-7.56c0-1.01-.22-1.75-.66-2.21-.44-.46-1.06-.69-1.86-.69-.6,0-1.16,.16-1.69,.47-.53,.31-.9,.73-1.13,1.26-.22,.53-.34,1.26-.34,2.2v6.52h-2.02Z"/>
      <path d="M402.32,217.32l2.09,.26c-.33,1.22-.94,2.17-1.83,2.84-.89,.67-2.03,1.01-3.41,1.01-1.75,0-3.13-.54-4.15-1.61-1.02-1.07-1.53-2.58-1.53-4.52s.52-3.56,1.55-4.67c1.03-1.11,2.37-1.66,4.02-1.66s2.9,.54,3.91,1.63c1.01,1.08,1.52,2.61,1.52,4.58,0,.12,0,.3-.01,.54h-8.89c.07,1.31,.45,2.31,1.11,3.01s1.5,1.04,2.49,1.04c.74,0,1.37-.19,1.9-.58,.52-.39,.94-1.01,1.25-1.86Zm-6.64-3.27h6.66c-.09-1-.34-1.76-.76-2.26-.64-.78-1.48-1.17-2.5-1.17-.93,0-1.71,.31-2.34,.93-.63,.62-.98,1.45-1.05,2.49Z"/>
      <path d="M406.92,221.16v-11.93h1.82v1.81c.46-.85,.89-1.4,1.29-1.67,.39-.27,.83-.4,1.3-.4,.68,0,1.37,.22,2.08,.65l-.7,1.88c-.49-.29-.99-.44-1.48-.44-.44,0-.84,.13-1.19,.4-.35,.27-.6,.63-.75,1.11-.22,.72-.34,1.5-.34,2.36v6.24h-2.02Z"/>
      <path d="M414.6,221.16v-11.93h1.82v1.7c.88-1.31,2.14-1.97,3.79-1.97,.72,0,1.38,.13,1.98,.39,.6,.26,1.05,.6,1.35,1.02,.3,.42,.51,.92,.63,1.49,.08,.38,.11,1.03,.11,1.97v7.33h-2.02v-7.25c0-.82-.08-1.44-.24-1.85-.16-.41-.44-.73-.84-.98s-.87-.37-1.41-.37c-.86,0-1.6,.27-2.23,.82-.62,.55-.94,1.58-.94,3.11v6.51h-2.02Z"/>
      <path d="M434.42,221.16v-16.46h2.18v16.46h-2.18Z"/>
      <path d="M440.16,221.16v-11.93h1.82v1.81c.46-.85,.89-1.4,1.29-1.67,.39-.27,.83-.4,1.3-.4,.68,0,1.37,.22,2.08,.65l-.7,1.88c-.49-.29-.99-.44-1.48-.44-.44,0-.84,.13-1.19,.4-.35,.27-.6,.63-.75,1.11-.22,.72-.34,1.5-.34,2.36v6.24h-2.02Z"/>
      <path d="M456,217.32l2.09,.26c-.33,1.22-.94,2.17-1.83,2.84-.89,.67-2.03,1.01-3.41,1.01-1.75,0-3.13-.54-4.15-1.61-1.02-1.07-1.53-2.58-1.53-4.52s.52-3.56,1.55-4.67c1.03-1.11,2.37-1.66,4.02-1.66s2.9,.54,3.91,1.63c1.01,1.08,1.52,2.61,1.52,4.58,0,.12,0,.3-.01,.54h-8.89c.07,1.31,.45,2.31,1.11,3.01s1.5,1.04,2.49,1.04c.74,0,1.37-.19,1.9-.58,.52-.39,.94-1.01,1.25-1.86Zm-6.64-3.27h6.66c-.09-1-.34-1.76-.76-2.26-.64-.78-1.48-1.17-2.5-1.17-.93,0-1.71,.31-2.34,.93-.63,.62-.98,1.45-1.05,2.49Z"/>
      <path d="M460.58,221.16v-16.46h2.02v16.46h-2.02Z"/>
      <path d="M473.52,219.69c-.75,.64-1.47,1.08-2.16,1.35-.69,.26-1.44,.39-2.23,.39-1.31,0-2.32-.32-3.02-.96-.7-.64-1.06-1.46-1.06-2.45,0-.58,.13-1.12,.4-1.6,.27-.48,.61-.87,1.04-1.16s.92-.51,1.45-.66c.4-.11,1-.21,1.8-.3,1.63-.19,2.83-.43,3.61-.7,0-.28,.01-.45,.01-.53,0-.82-.19-1.4-.57-1.74-.52-.46-1.28-.68-2.3-.68-.95,0-1.65,.17-2.11,.5-.45,.33-.79,.92-1,1.77l-1.98-.27c.18-.85,.47-1.53,.89-2.05s1.01-.92,1.79-1.2c.78-.28,1.68-.42,2.71-.42s1.85,.12,2.48,.36c.64,.24,1.1,.54,1.4,.9s.51,.82,.63,1.38c.07,.34,.1,.97,.1,1.86v2.7c0,1.88,.04,3.07,.13,3.57s.26,.98,.51,1.43h-2.11c-.21-.42-.34-.91-.4-1.47Zm-.17-4.51c-.73,.3-1.83,.55-3.3,.76-.83,.12-1.42,.25-1.76,.4-.34,.15-.61,.37-.8,.66-.19,.29-.28,.61-.28,.96,0,.54,.2,.99,.61,1.35s1,.54,1.79,.54,1.47-.17,2.08-.51c.61-.34,1.05-.81,1.34-1.4,.22-.46,.33-1.13,.33-2.02v-.74Z"/>
      <path d="M478.53,221.16v-11.93h1.82v1.7c.88-1.31,2.14-1.97,3.79-1.97,.72,0,1.38,.13,1.98,.39,.6,.26,1.05,.6,1.35,1.02,.3,.42,.51,.92,.63,1.49,.08,.38,.11,1.03,.11,1.97v7.33h-2.02v-7.25c0-.82-.08-1.44-.24-1.85-.16-.41-.44-.73-.84-.98s-.87-.37-1.41-.37c-.86,0-1.6,.27-2.23,.82-.62,.55-.94,1.58-.94,3.11v6.51h-2.02Z"/>
      <path d="M499.06,221.16v-1.5c-.76,1.18-1.87,1.77-3.34,1.77-.95,0-1.82-.26-2.62-.79-.8-.52-1.42-1.26-1.85-2.2-.44-.94-.66-2.02-.66-3.24s.2-2.27,.59-3.24c.4-.97,.99-1.71,1.79-2.23s1.68-.78,2.66-.78c.72,0,1.36,.15,1.92,.46,.56,.3,1.02,.7,1.37,1.18v-5.91h2.01v16.46h-1.88Zm-6.39-5.95c0,1.53,.32,2.67,.97,3.43,.64,.76,1.4,1.13,2.28,1.13s1.63-.36,2.25-1.08c.62-.72,.93-1.82,.93-3.31,0-1.63-.31-2.83-.94-3.59s-1.4-1.15-2.32-1.15-1.65,.37-2.25,1.1c-.6,.73-.9,1.89-.9,3.47Z"/>
    </g>
  </g>
</svg>