<?xml version="1.0" encoding="UTF-8"?>
<svg id="Layer_2" data-name="Layer 2" xmlns="http://www.w3.org/2000/svg" viewBox="0 0 129.02 127.35">
  <defs>
    <style>
      .cls-1 {
        fill: none;
        stroke: #0fa9e1;
        stroke-linecap: round;
        stroke-linejoin: round;
        stroke-width: 3px;
      }
    </style>
  </defs>
  <g id="home-1">
    <g>
      <g>
        <path class="cls-1" d="M15.75,97.53c-.11-6.55-2.64-12.81-7.03-17.68-4.59-5.09-7.34-11.86-7.22-19.28,.25-15.48,12.76-27.7,28.25-27.62,15.45,.08,27.95,12.63,27.95,28.1,0,7.28-2.77,13.91-7.31,18.9-4.39,4.82-6.94,11.04-6.94,17.56"/>
        <path class="cls-1" d="M15.41,98.12v10.09c0,5.36,4.35,9.71,9.71,9.71h8.95c5.36,0,9.71-4.35,9.71-9.71v-10.09c0-.38-.31-.7-.7-.7H16.11c-.38,0-.7,.31-.7,.7Z"/>
        <path class="cls-1" d="M37.65,117.8c0,4.45-3.61,8.05-8.05,8.05s-8.05-3.61-8.05-8.05"/>
        <path class="cls-1" d="M36.23,97.43v-27.85c0-2.26,1.84-4.1,4.1-4.1h.48c2.27,0,4.1,1.84,4.1,4.1,0,1.13-.46,2.16-1.2,2.9s-1.76,1.2-2.9,1.2H18.39c-2.27,0-4.1-1.83-4.1-4.1,0-1.13,.46-2.16,1.2-2.9s1.76-1.2,2.9-1.2h.48c2.27,0,4.1,1.84,4.1,4.1v27.85"/>
      </g>
      <path class="cls-1" d="M121.56,77.89c3.73-4.73,5.96-10.7,5.96-17.2,0-15.33-12.43-27.76-27.76-27.76s-27.76,12.43-27.76,27.76c0,6.49,2.23,12.47,5.96,17.2"/>
      <path class="cls-1" d="M108.81,111.59h-18.1c-1.45,0-2.66-1.09-2.82-2.53h0c-1.04-9.5-3.74-18.74-7.99-27.3l-1.94-3.87h43.59l-1.95,3.88c-4.24,8.56-6.94,17.8-7.98,27.3h0c-.16,1.44-1.37,2.53-2.82,2.53Z"/>
      <path class="cls-1" d="M109.61,111.95v8.77c0,2.83-2.47,5.12-5.52,5.12h-8.6c-3.05,0-5.52-2.29-5.52-5.12v-8.77"/>
      <g>
        <line class="cls-1" x1="94.06" y1="89.36" x2="95.68" y2="104.27"/>
        <line class="cls-1" x1="105.94" y1="89.36" x2="104.32" y2="104.27"/>
      </g>
      <path class="cls-1" d="M27.72,17.33C45.54-5.65,80.6-3.02,95.1,21.38l.25-12.35-.25,12.35-12.35-.25"/>
    </g>
  </g>
</svg>