<?xml version="1.0" encoding="UTF-8"?>
<svg id="Layer_2" data-name="Layer 2" xmlns="http://www.w3.org/2000/svg" viewBox="0 0 138.49 129.73">
  <defs>
    <style>
      .cls-1 {
        fill: none;
        stroke: #0fa9e1;
        stroke-linecap: round;
        stroke-linejoin: round;
        stroke-width: 3px;
      }
    </style>
  </defs>
  <g id="home-1">
    <g>
      <path class="cls-1" d="M91.93,51.43l-2.27,1.3c-3.78,2.16-10.54,6.36-15.03,9.18-3.37,2.12-5.51,5.81-5.42,9.79,.02,.98,.16,1.85,.48,2.42l25.99-14.87"/>
      <path class="cls-1" d="M106.04,43.08v-2.61c.03-4.35-.23-12.31-.42-17.61-.15-3.98-2.28-7.68-5.77-9.59-.86-.47-1.68-.79-2.34-.79l-.12,29.94"/>
      <path class="cls-1" d="M106.21,59.47l2.26,1.32c3.76,2.19,10.78,5.94,15.47,8.43,3.52,1.86,7.79,1.86,11.19-.2,.84-.51,1.53-1.06,1.86-1.63l-25.87-15.08"/>
      <line class="cls-1" x1="94.68" y1="128.12" x2="99.01" y2="65.24"/>
      <line class="cls-1" x1="104.29" y1="65.24" x2="108.1" y2="128.18"/>
      <g>
        <circle class="cls-1" cx="19.2" cy="19.2" r="8.66"/>
        <line class="cls-1" x1="19.25" y1="4.86" x2="19.27" y2="1.5"/>
        <line class="cls-1" x1="9.1" y1="9.02" x2="6.73" y2="6.63"/>
        <line class="cls-1" x1="4.86" y1="19.14" x2="1.5" y2="19.13"/>
        <line class="cls-1" x1="9.02" y1="29.29" x2="6.63" y2="31.66"/>
        <line class="cls-1" x1="19.14" y1="33.53" x2="19.13" y2="36.89"/>
        <line class="cls-1" x1="29.29" y1="29.37" x2="31.66" y2="31.76"/>
        <line class="cls-1" x1="33.53" y1="19.25" x2="36.89" y2="19.27"/>
        <line class="cls-1" x1="29.37" y1="9.1" x2="31.76" y2="6.73"/>
      </g>
      <g>
        <polygon class="cls-1" points="72.33 110.64 5.07 110.38 13.11 76.35 64.57 76.56 72.33 110.64"/>
        <line class="cls-1" x1="28.27" y1="110.47" x2="30.34" y2="76.42"/>
        <line class="cls-1" x1="50.27" y1="110.55" x2="47.81" y2="76.49"/>
        <line class="cls-1" x1="38.62" y1="110.51" x2="38.64" y2="127.93"/>
      </g>
      <line class="cls-1" x1="122.72" y1="128.23" x2="14.32" y2="127.81"/>
      <path class="cls-1" d="M52.66,39.13c-.14-.63-.22-1.29-.21-1.97,.02-4.81,3.93-8.69,8.74-8.67,4.81,.02,8.69,3.93,8.67,8.74-.02,4.81-3.93,8.69-8.74,8.67l-26.76-.1"/>
      <line class="cls-1" x1="48.29" y1="53.88" x2="22.64" y2="53.78"/>
      <circle class="cls-1" cx="101.39" cy="51.32" r="4.61"/>
    </g>
  </g>
</svg>